<svg width="47" height="46" viewBox="0 0 47 46" fill="none" xmlns="http://www.w3.org/2000/svg">
<rect x="0.500015" y="0.00012207" width="46" height="46" rx="23" fill="#F5F5F5"/>
<path d="M31.0736 23.7629C31.0617 21.5657 32.0555 19.9072 34.0672 18.6859C32.9416 17.0754 31.2413 16.1893 28.9961 16.0157C26.8707 15.848 24.5478 17.255 23.6976 17.255C22.7995 17.255 20.74 16.0755 19.1235 16.0755C15.7827 16.1294 12.2324 18.7398 12.2324 24.0503C12.2324 25.6189 12.5198 27.2394 13.0945 28.9118C13.8609 31.109 16.6269 36.4974 19.5126 36.4076C21.0214 36.3717 22.0871 35.3359 24.0508 35.3359C25.9547 35.3359 26.9426 36.4076 28.6249 36.4076C31.5346 36.3657 34.0372 31.4683 34.7677 29.265C30.8641 27.427 31.0736 23.8767 31.0736 23.7629ZM27.685 13.9322C29.3194 11.9924 29.1698 10.2262 29.1219 9.59155C27.679 9.67537 26.0086 10.5734 25.0567 11.681C24.0089 12.8665 23.3922 14.3333 23.524 15.9857C25.0866 16.1055 26.5115 15.3032 27.685 13.9322Z" fill="black"/>
</svg>
