<svg width="47" height="46" viewBox="0 0 47 46" fill="none" xmlns="http://www.w3.org/2000/svg">
<rect x="0.500015" y="0.00012207" width="46" height="46" rx="23" fill="#F5F5F5"/>
<path d="M35.5 23.0001C35.5 16.372 30.1281 11.0001 23.5 11.0001C16.8719 11.0001 11.5 16.372 11.5 23.0001C11.5 28.9903 15.8856 33.9548 21.626 34.8553V26.4717H18.5814V23.0001H21.626V20.3568C21.626 17.3517 23.4142 15.6886 26.1564 15.6886C27.4713 15.6886 28.8456 15.9253 28.8456 15.9253V18.8775H27.3335C25.841 18.8775 25.3806 19.8047 25.3806 20.7515V23.0001H28.7078L28.1753 26.4717H25.3806V34.8553C31.1144 33.9548 35.5 28.9903 35.5 23.0001Z" fill="#1877F2"/>
<path d="M28.1683 26.4717L28.7013 23.0001H25.3741V20.7515C25.3741 19.8046 25.841 18.8774 27.3269 18.8774H28.8391V15.9253C28.8391 15.9253 27.4647 15.6885 26.1499 15.6885C23.4081 15.6885 21.6194 17.3521 21.6194 20.3568V23.0001H18.5749V26.4717H21.6194V34.8553C22.2311 34.9537 22.8555 35.0001 23.4935 35.0001C24.1314 35.0001 24.7558 34.9476 25.3675 34.8553V26.4717H28.1683Z" fill="white"/>
</svg>
