<svg width="47" height="46" viewBox="0 0 47 46" fill="none" xmlns="http://www.w3.org/2000/svg">
<rect x="0.500015" y="0.00012207" width="46" height="46" rx="23" fill="#F5F5F5"/>
<path d="M35.5 23.266C35.5 22.2822 35.4183 21.5642 35.2415 20.8197H23.7449V25.2603H30.4931C30.3571 26.3638 29.6224 28.0257 27.9898 29.1425L27.9669 29.2911L31.6019 32.0429L31.8537 32.0675C34.1666 29.9801 35.5 26.9089 35.5 23.266" fill="#4285F4"/>
<path d="M23.745 34.9657C27.051 34.9657 29.8265 33.9021 31.8538 32.0674L27.9898 29.1424C26.9558 29.847 25.5681 30.3389 23.745 30.3389C20.5069 30.3389 17.7586 28.2516 16.7789 25.3666L16.6353 25.3785L12.8556 28.237L12.8062 28.3712C14.8198 32.28 18.9558 34.9657 23.745 34.9657Z" fill="#34A853"/>
<path d="M16.7789 25.3668C16.5204 24.6222 16.3708 23.8245 16.3708 23.0002C16.3708 22.1759 16.5204 21.3782 16.7653 20.6336L16.7584 20.4751L12.9313 17.5707L12.8061 17.6289C11.9762 19.2509 11.5 21.0724 11.5 23.0002C11.5 24.928 11.9762 26.7494 12.8061 28.3714L16.7789 25.3668" fill="#FBBC05"/>
<path d="M23.745 15.661C26.0443 15.661 27.5952 16.6316 28.4796 17.4426L31.9354 14.1454C29.813 12.2176 27.0511 11.0343 23.745 11.0343C18.9558 11.0343 14.8198 13.7199 12.8062 17.6287L16.7653 20.6335C17.7586 17.7484 20.5069 15.661 23.745 15.661" fill="#EB4335"/>
</svg>
